<svg width="18" height="22" viewBox="0 0 18 22" fill="none" xmlns="http://www.w3.org/2000/svg">
<path fill-rule="evenodd" clip-rule="evenodd" d="M16.5 21.5H1.5C0.67125 21.5 0 20.8288 0 20V13.25C0 12.4213 0.67125 11.75 1.5 11.75H5.49975V11C5.49975 10.1713 6.17175 9.50003 6.99975 9.50003H11.0002V8.00003C11.0002 7.17128 11.6715 6.50003 12.5002 6.50003H16.5C17.3288 6.50003 18 7.17128 18 8.00003V20C18 20.8288 17.3288 21.5 16.5 21.5ZM5.49975 13.25H1.5V20H5.49975V13.25ZM11.0002 11H6.99975V20H11.0002V11ZM12.5002 20H16.5V8.00003H12.5002V10.25V20ZM11.2395 3.21653C8.41725 7.37753 3.186 8.72678 3.186 8.72678C2.78475 8.82953 2.376 8.58728 2.27325 8.18603C2.1705 7.78478 2.41275 7.37603 2.814 7.27328C2.814 7.27328 7.7955 6.01103 10.2308 2.01278L8.7555 2.00003C8.3415 1.99628 8.0085 1.65728 8.01225 1.24328C8.016 0.829281 8.355 0.496281 8.769 0.500031L11.979 0.528531C12.3885 0.531531 12.7192 0.862281 12.7222 1.27178L12.75 4.40753C12.7537 4.82153 12.4208 5.16053 12.0068 5.16428C11.5928 5.16803 11.2537 4.83503 11.25 4.42103L11.2395 3.21653Z" fill="currentColor"/>
</svg>
