<svg width="24" height="24" viewBox="0 0 24 24" fill="none" xmlns="http://www.w3.org/2000/svg">
<path d="M21.8907 7.07814H16.9688V3.5625C16.9688 2.39939 16.0225 1.45312 14.8594 1.45312H2.10938C0.946268 1.45312 0 2.39939 0 3.5625V12C0 13.1631 0.946268 14.1094 2.10938 14.1094H2.81251V16.2188C2.81251 16.7819 3.44148 17.1132 3.90563 16.8038L7.03126 14.7201V17.625C7.03126 18.7881 7.97753 19.7344 9.14064 19.7344H16.0528L20.0944 22.4288C20.5592 22.7387 21.1875 22.407 21.1875 21.8438V19.7344H21.8906C23.0537 19.7344 24 18.7881 24 17.625V9.18751C24 8.0244 23.0538 7.07814 21.8907 7.07814ZM7.34242 12.8225C7.34176 12.823 7.34106 12.8234 7.34041 12.8239L4.21876 14.905V13.4063C4.21876 13.018 3.90395 12.7031 3.51563 12.7031H2.10938C1.72168 12.7031 1.40625 12.3877 1.40625 12V3.5625C1.40625 3.1748 1.72168 2.85938 2.10938 2.85938H14.8594C15.2471 2.85938 15.5625 3.1748 15.5625 3.5625V12C15.5625 12.3877 15.2471 12.7031 14.8594 12.7031H7.73439C7.59831 12.7031 7.45769 12.7452 7.34242 12.8225ZM22.5938 17.625C22.5938 18.0127 22.2784 18.3282 21.8907 18.3282H20.4844C20.0961 18.3282 19.7813 18.643 19.7813 19.0313V20.53L16.6557 18.4462C16.5402 18.3692 16.4045 18.3282 16.2657 18.3282H9.14064C8.75294 18.3282 8.43752 18.0127 8.43752 17.625V14.1094H14.8594C16.0225 14.1094 16.9688 13.1631 16.9688 12V8.48439H21.8907C22.2784 8.48439 22.5938 8.79981 22.5938 9.18751V17.625Z" fill="currentColor"/>
<path d="M9.14064 8.48438H3.51563C3.12731 8.48438 2.8125 8.79919 2.8125 9.1875C2.8125 9.57581 3.12731 9.89063 3.51563 9.89063H9.14064C9.52895 9.89063 9.84376 9.57581 9.84376 9.1875C9.84376 8.79919 9.52895 8.48438 9.14064 8.48438Z" fill="currentColor"/>
<path d="M13.4531 5.67188H3.51563C3.12731 5.67188 2.8125 5.98669 2.8125 6.375C2.8125 6.76331 3.12731 7.07813 3.51563 7.07813H13.4531C13.8415 7.07813 14.1563 6.76331 14.1563 6.375C14.1563 5.98669 13.8415 5.67188 13.4531 5.67188Z" fill="currentColor"/>
</svg>
